<?xml version="1.0" standalone="no"?><!DOCTYPE svg PUBLIC "-//W3C//DTD SVG 1.1//EN" "http://www.w3.org/Graphics/SVG/1.1/DTD/svg11.dtd"><svg t="1623140042572" class="icon" viewBox="0 0 1025 1024" version="1.1" xmlns="http://www.w3.org/2000/svg" p-id="4556" xmlns:xlink="http://www.w3.org/1999/xlink" width="81.0791015625" height="81"><defs><style type="text/css"></style></defs><path d="M871.744177 160.283022l-720.137162 0c-66.384034 0-120.021155 53.628934-120.021155 119.881978l0 464.211355c0 66.254068 53.637121 119.942356 120.021155 119.942356l720.137162 0c66.136382 0 120.022178-53.688288 120.022178-119.942356L991.766355 280.165C991.767379 213.911955 937.880559 160.283022 871.744177 160.283022zM867.050046 430.171488 528.992815 648.059179c-5.252883 3.435404-11.313193 5.12701-17.316195 5.12701-5.999932 0-12.066382-1.690583-17.315171-5.12701l-338.190268-217.887691c-14.881633-9.558138-19.12958-29.373367-9.624656-44.251929 9.624656-14.813068 29.376437-19.063062 44.258069-9.499807l320.872027 206.700371 320.745131-206.700371c14.691288-9.563255 34.62932-5.312237 44.199738 9.499807C886.246145 400.798121 881.931679 420.61335 867.050046 430.171488z" p-id="4557"></path></svg>