<?xml version="1.0" standalone="no"?><!DOCTYPE svg PUBLIC "-//W3C//DTD SVG 1.1//EN" "http://www.w3.org/Graphics/SVG/1.1/DTD/svg11.dtd"><svg t="1634191910484" class="icon" viewBox="0 0 1024 1024" version="1.1" xmlns="http://www.w3.org/2000/svg" p-id="4166" data-spm-anchor-id="a313x.7781069.0.i2" xmlns:xlink="http://www.w3.org/1999/xlink" width="42" height="42"><defs><style type="text/css"></style></defs><path d="M372.926359 180.012795h258.757881a88.821455 88.821455 0 0 0 95.627912-84.37757A88.821455 88.821455 0 0 0 642.934582 0.007313H372.926359A88.877707 88.877707 0 0 0 282.923618 90.010054a88.877707 88.877707 0 0 0 90.002741 90.002741z m0-112.503426h258.757881a24.188237 24.188237 0 0 1 22.500685 22.500685 24.188237 24.188237 0 0 1-22.500685 22.500685H372.926359a20.588127 20.588127 0 0 1-22.500685-22.500685 20.588127 20.588127 0 0 1 22.500685-22.500685z"  p-id="4167"></path><path d="M502.305299 945.036095H204.171219a86.515135 86.515135 0 0 1-84.37757-84.37757v-675.020559a82.858774 82.858774 0 0 1 84.37757-84.377569 36.282355 36.282355 0 0 0 33.751028-33.751028c0-16.875514-11.250343-28.125857-33.751028-28.125857A150.135823 150.135823 0 0 0 57.916765 191.263138v675.020559A148.898285 148.898285 0 0 0 204.171219 1012.538151h292.508909a36.282355 36.282355 0 0 0 33.751028-33.751028 28.125857 28.125857 0 0 0-28.125857-33.751028z"  p-id="4168"></path><path d="M794.814208 106.885568a86.515135 86.515135 0 0 1 84.37757 84.37757v360.010964a30.657184 30.657184 0 0 0 39.376199 28.125857 26.550809 26.550809 0 0 0 28.125857-28.125857V191.263138A153.960939 153.960939 0 0 0 800.43938 39.383512a36.282355 36.282355 0 0 0-33.751028 33.751028 28.125857 28.125857 0 0 0 28.125856 33.751028z"  p-id="4169"></path><path d="M277.298446 376.893791h444.388535a36.282355 36.282355 0 0 0 33.751028-33.751028 36.282355 36.282355 0 0 0-33.751028-33.751027H277.298446a36.282355 36.282355 0 0 0-33.751027 33.751027 29.813408 29.813408 0 0 0 33.751027 33.751028z"  p-id="4170"></path><path d="M277.298446 534.398588h444.388535a33.751028 33.751028 0 0 0 0-67.502055H277.298446a36.282355 36.282355 0 0 0-33.751027 33.751027 29.813408 29.813408 0 0 0 33.751027 33.751028z"  p-id="4171"></path><path d="M277.298446 624.40133a33.751028 33.751028 0 0 0 0 67.502055h219.381682a33.751028 33.751028 0 0 0 0-67.502055z"  p-id="4172"></path><path d="M957.944177 866.283697l-22.500686-22.500686v-39.376199l22.500686-22.500685c5.625171-5.625171 11.250343-16.875514 5.625171-22.500686a218.312899 218.312899 0 0 0-33.751028-61.876884c-5.625171-5.625171-16.875514-11.250343-22.500685-5.625172l-28.125857 11.250343a117.678584 117.678584 0 0 0-33.751028-22.500685l-5.625171-33.751028a17.944297 17.944297 0 0 0-16.875514-16.875514 137.085425 137.085425 0 0 0-67.502056 0 17.944297 17.944297 0 0 0-16.875514 16.875514l-5.625171 33.751028a117.678584 117.678584 0 0 0-33.751028 22.500685l-28.125857-11.250343c-11.250343-5.625171-16.875514 0-22.500685 5.625172a134.104084 134.104084 0 0 0-33.751028 61.876884c-5.625171 11.250343 0 16.875514 5.625171 22.500686l22.500685 22.500685v39.376199l-22.500685 22.500686c-5.625171 5.625171-11.250343 16.875514-5.625171 22.500685a218.312899 218.312899 0 0 0 33.751028 61.876884c5.625171 5.625171 16.875514 11.250343 22.500685 5.625172l28.125857-11.250343a117.678584 117.678584 0 0 0 33.751028 22.500685l5.625171 33.751028a17.944297 17.944297 0 0 0 16.875514 16.875514c11.250343 0 22.500685 5.625171 33.751028 5.625172a71.327172 71.327172 0 0 0 33.751028-5.625172 17.944297 17.944297 0 0 0 16.875514-16.875514l5.625171-33.751028a117.678584 117.678584 0 0 0 33.751028-22.500685l28.125857 11.250343c11.250343 5.625171 16.875514 0 22.500685-5.625172a134.104084 134.104084 0 0 0 33.751028-61.876884c5.625171-5.625171 0-16.875514-5.625171-22.500685z m-281.258567 0l-5.625171-22.500686v-33.751028l5.625171-22.500685-28.125856-28.125857c5.625171-5.625171 5.625171-11.250343 11.250342-16.875514l39.3762 11.250343 16.875514-11.250343c11.250343-5.625171 16.875514-11.250343 28.125856-16.875514l22.500686-5.625171 5.625171-39.376199h22.500685l5.625172 39.376199 22.500685 5.625171a122.966245 122.966245 0 0 1 28.125856 16.875514l16.875514 11.250343 39.3762-11.250343c5.625171 5.625171 5.625171 11.250343 11.250342 16.875514l-33.751028 28.125857 5.625172 22.500685v33.751028l-5.625172 22.500686 28.125857 28.125856c-5.625171 5.625171-5.625171 11.250343-11.250343 16.875514l-39.376199-11.250343-16.875514 11.250343c-11.250343 5.625171-16.875514 11.250343-28.125857 16.875514l-22.500685 5.625171-5.625171 39.3762h-22.500685l-5.625172-39.3762-22.500685-5.625171a122.966245 122.966245 0 0 1-28.125857-16.875514l-16.875514-11.250343-39.376199 11.250343c-5.625171-5.625171-5.625171-11.250343-11.250343-16.875514z"  p-id="4173"></path><path d="M777.938694 900.034724a86.515135 86.515135 0 0 0 84.37757-84.377569 85.502604 85.502604 0 0 0-78.752398-84.37757h-5.625172a84.37757 84.37757 0 0 0 0 168.755139z m-39.376199-78.752398a39.376199 39.376199 0 1 1 78.752398 0c0 11.250343-5.625171 16.875514-11.250342 28.125857a37.576144 37.576144 0 0 1-56.251713 0c-5.625171-11.250343-11.250343-16.875514-11.250343-28.125857z" p-id="4174"></path></svg>