<?xml version="1.0" standalone="no"?><!DOCTYPE svg PUBLIC "-//W3C//DTD SVG 1.1//EN" "http://www.w3.org/Graphics/SVG/1.1/DTD/svg11.dtd"><svg t="1642594933556" class="icon" viewBox="0 0 1024 1024" version="1.1" xmlns="http://www.w3.org/2000/svg" p-id="4434" xmlns:xlink="http://www.w3.org/1999/xlink" width="36" height="36"><defs><style type="text/css"></style></defs><path d="M814.08 186.026667h-51.2c-10.24-20.48-30.72-34.133333-52.906667-34.133334h-15.36v-34.133333c0-29.013333-22.186667-51.2-51.2-51.2H395.946667c-29.013333 0-51.2 22.186667-51.2 51.2v34.133333h-15.36c-23.893333 0-44.373333 13.653333-52.906667 34.133334h-51.2c-47.786667 0-85.333333 37.546667-85.333333 85.333333v563.2c0 47.786667 37.546667 85.333333 85.333333 85.333333h588.8c47.786667 0 85.333333-37.546667 85.333333-85.333333v-563.2c0-47.786667-39.253333-85.333333-85.333333-85.333333z m-510.293333 25.6c0-13.653333 11.946667-25.6 25.6-25.6h49.493333v-68.266667c0-10.24 6.826667-17.066667 17.066667-17.066667h245.76c10.24 0 17.066667 6.826667 17.066666 17.066667v68.266667h49.493334c13.653333 0 25.6 11.946667 25.6 25.6v34.133333c0 13.653333-11.946667 25.6-25.6 25.6H329.386667c-13.653333 0-25.6-11.946667-25.6-25.6v-34.133333z m561.493333 621.226666c0 29.013333-22.186667 51.2-51.2 51.2H225.28c-29.013333 0-51.2-22.186667-51.2-51.2v-563.2c0-29.013333 22.186667-51.2 51.2-51.2h46.08v25.6c0 32.426667 27.306667 59.733333 59.733333 59.733334h378.88c32.426667 0 59.733333-27.306667 59.733334-59.733334v-25.6h46.08c29.013333 0 51.2 22.186667 51.2 51.2v563.2z" p-id="4435"></path><path d="M723.626667 756.053333H310.613333c-10.24 0-17.066667 6.826667-17.066666 17.066667s6.826667 17.066667 17.066666 17.066667h411.306667c10.24 0 17.066667-6.826667 17.066667-17.066667s-6.826667-17.066667-15.36-17.066667zM320.853333 698.026667h5.12l95.573334-25.6c3.413333 0 6.826667-1.706667 8.533333-3.413334l232.106667-211.626666c3.413333-3.413333 5.12-6.826667 5.12-11.946667 0-5.12-1.706667-8.533333-5.12-11.946667l-63.146667-69.973333c-6.826667-6.826667-17.066667-6.826667-23.893333-1.706667L343.04 573.44c-1.706667 1.706667-3.413333 5.12-5.12 8.533333l-34.133333 93.866667c-1.706667 5.12-1.706667 11.946667 3.413333 17.066667 3.413333 1.706667 8.533333 5.12 13.653333 5.12z m40.96-80.213334l25.6 27.306667-39.253333 10.24 13.653333-37.546667z m223.573334-220.16l40.96 44.373334L419.84 631.466667l-6.826667-6.826667-34.133333-37.546667 206.506667-189.44zM459.093333 177.493333h119.466667c10.24 0 17.066667-6.826667 17.066667-17.066666s-6.826667-17.066667-17.066667-17.066667h-119.466667c-10.24 0-17.066667 6.826667-17.066666 17.066667s8.533333 17.066667 17.066666 17.066666z" p-id="4436"></path></svg>