<?xml version="1.0" standalone="no"?><!DOCTYPE svg PUBLIC "-//W3C//DTD SVG 1.1//EN" "http://www.w3.org/Graphics/SVG/1.1/DTD/svg11.dtd"><svg t="1624083084340" class="icon" viewBox="0 0 1024 1024" version="1.1" xmlns="http://www.w3.org/2000/svg" p-id="4878" xmlns:xlink="http://www.w3.org/1999/xlink" width="25" height="25"><defs><style type="text/css"></style></defs><path d="M1023.42592 453.888c0.384 2.56 0.576 5.12 0.576 7.744v509.632a53.12 53.12 0 0 1-0.576 7.744v15.552a29.12 29.12 0 0 1-28.416 28.416h-14.848a52.48 52.48 0 0 1-8.32 0.64H52.16192a52.608 52.608 0 0 1-8.32-0.64H28.80192a29.12 29.12 0 0 1-28.416-28.416v-16.448A53.44 53.44 0 0 1 0.00192 971.264V461.632c0-2.304 0.128-4.544 0.448-6.784v-157.44c0-15.104 13.248-28.416 28.416-28.416h39.744V134.528c0-15.168 13.312-28.416 28.416-28.416h39.808V28.416c0-15.168 13.248-28.416 28.416-28.416h786.176c15.168 0 28.416 13.248 28.416 28.416v359.936h17.088c15.168 0 28.416 11.392 26.496 28.416v37.12zM193.66592 56.832v49.28H839.68192c15.168 0 28.416 13.248 28.416 28.416v253.824h53.056V56.832H193.66592zM127.36192 162.944v107.968h166.72a24.32 24.32 0 0 1 18.944 7.552l119.36 109.888h380.8V162.944H127.36192z m525.184 425.984V844.8h41.92v-176.32h1.472L771.20192 844.8h36.16l75.264-176.32h1.472V844.8h41.92V588.928h-49.088l-86.784 200.704h-1.408l-87.04-200.704h-49.152zM488.38592 620.8c-26.496 0-46.912 8.96-61.632 26.88-13.952 17.216-20.8 40.128-20.8 69.504 0 29.056 6.848 51.968 20.8 69.184 14.336 17.6 35.136 26.56 61.632 26.56 26.56 0 46.976-8.64 61.312-25.472 13.952-16.832 21.12-40.128 21.12-70.272 0-30.08-7.168-53.76-21.12-70.912-14.336-17.28-34.752-25.472-61.312-25.472z m0-36.928c39.04 0 69.888 12.544 92.48 38.016 21.504 24 32.256 55.872 32.256 95.36 0 39.36-10.752 70.912-32.256 94.912-22.592 25.088-53.376 37.632-92.48 37.632-39.424 0-70.208-12.864-92.48-37.952-21.504-24.384-31.872-55.936-31.872-94.656 0-39.04 10.368-70.592 31.872-94.976 22.272-25.792 53.12-38.336 92.48-38.336z m-360.896 5.056h117.184c25.472 0 45.504 6.08 59.84 18.24 13.312 11.52 20.096 26.88 20.096 46.272a63.616 63.616 0 0 1-10.368 36.48 63.168 63.168 0 0 1-29.44 21.184c16.896 3.2 29.44 10.048 38.016 20.48 8.256 9.984 12.544 24 12.544 41.152 0 25.856-8.96 44.8-26.496 56.96-15.104 10.112-36.608 15.104-63.808 15.104H127.48992V588.928z m41.92 141.888v79.552h69.568c15.744 0 28.288-2.496 37.248-7.488 11.52-6.464 17.216-16.512 17.216-30.848 0-14.72-4.288-25.088-12.544-31.552-8.64-6.4-22.208-9.6-40.896-9.6H169.40992z m0-107.52v73.152H233.60192c17.92 0 30.464-3.2 37.952-8.96 7.168-6.144 11.136-15.808 11.136-29.056 0-12.16-3.968-21.12-11.136-26.496-7.872-5.76-20.032-8.64-37.248-8.64H169.40992z" p-id="4879"></path></svg>