<?xml version="1.0" standalone="no"?><!DOCTYPE svg PUBLIC "-//W3C//DTD SVG 1.1//EN" "http://www.w3.org/Graphics/SVG/1.1/DTD/svg11.dtd"><svg t="1627638139108" class="icon" viewBox="0 0 1024 1024" version="1.1" xmlns="http://www.w3.org/2000/svg" p-id="6397" width="40" height="40" xmlns:xlink="http://www.w3.org/1999/xlink"><defs><style type="text/css">@font-face { font-family: feedback-iconfont; src: url("//at.alicdn.com/t/font_1031158_1uhr8ri0pk5.eot?#iefix") format("embedded-opentype"), url("//at.alicdn.com/t/font_1031158_1uhr8ri0pk5.woff2") format("woff2"), url("//at.alicdn.com/t/font_1031158_1uhr8ri0pk5.woff") format("woff"), url("//at.alicdn.com/t/font_1031158_1uhr8ri0pk5.ttf") format("truetype"), url("//at.alicdn.com/t/font_1031158_1uhr8ri0pk5.svg#iconfont") format("svg"); }
</style></defs><path d="M512 1023.941821a149.111528 149.111528 0 0 1-148.995171-148.936992s0.872678-24.842225 22.573263-24.842225h252.262031c22.747798 0 23.271405 24.842225 23.271405 25.074939a149.053349 149.053349 0 0 1-149.111528 148.704278z m310.207829-206.475541h-620.473837a86.860519 86.860519 0 0 1-37.234248-165.343332v-206.882791a348.082041 348.082041 0 0 1 324.926993-346.802114 203.624794 203.624794 0 0 0 336.155446 196.75973 344.300437 344.300437 0 0 1 33.918073 150.042384v206.940969a86.860519 86.860519 0 0 1-37.292427 165.343333z" p-id="6398" fill="#bfcbd9"></path><path d="M687.582751 145.446281m-145.446281 0a145.446281 145.446281 0 1 0 290.892562 0 145.446281 145.446281 0 1 0-290.892562 0Z" p-id="6399" fill="#bfcbd9"></path></svg>