<svg t="1682412332132" class="icon" viewBox="0 0 1024 1024" version="1.1" xmlns="http://www.w3.org/2000/svg" p-id="4273" id="mx_n_1682412332133" width="45" height="45"><path d="M493.2 532.7c-127.3-0.2-230.4-103.7-230.1-231 0.2-127.3 103.7-230.4 231-230.1 127.1 0.2 230.1 103.4 230.1 230.6-0.3 127.4-103.6 230.5-231 230.5z m0-403.6c-95.7 0-173.3 77.6-173.3 173.3s77.6 173.3 173.3 173.3S666.4 398 666.4 302.4s-77.5-173.3-173.2-173.3z" p-id="4274"></path><path d="M92.6 932.2c-15.8 0-28.7-12.8-28.7-28.6v-0.1c0.2-236.8 192.3-428.7 429.2-428.5h0.1c15.9 0 28.7 12.9 28.7 28.7 0 15.9-12.9 28.7-28.7 28.7-205.3-0.2-371.9 166-372.2 371.3 0.1 15.7-12.5 28.4-28.2 28.6h-0.5l0.3-0.1z" p-id="4275"></path><path d="M957.7 896c-7 8.5-14 17.8-21.1 27.8-66.1-33-116.8-75.6-152.3-127.8v157.2H755V796.4c-38.1 50.5-89 94.5-152.7 132-4.8-6.8-11.5-15.2-20.3-25.2 68.1-35.7 121.8-78.7 161.3-129H588.1v-27.8H755v-70.7H610.3v-27.8h144.8v-64.3h29.3v64.3h146.3v27.8H784.4v70.7h166.9v27.8H794.9c40.4 53.9 94.6 94.5 162.8 121.8z" p-id="4276"></path></svg>