<?xml version="1.0" standalone="no"?><!DOCTYPE svg PUBLIC "-//W3C//DTD SVG 1.1//EN" "http://www.w3.org/Graphics/SVG/1.1/DTD/svg11.dtd"><svg t="1623999433300" class="icon" viewBox="0 0 1024 1024" version="1.1" xmlns="http://www.w3.org/2000/svg" p-id="7613" xmlns:xlink="http://www.w3.org/1999/xlink" width="25" height="25"><defs><style type="text/css"></style></defs><path d="M864.65561 0c48.553584 0 87.914146 39.360562 87.914146 87.914146v848.171708c0 48.553584-39.360562 87.914146-87.914146 87.914146H159.34439c-48.553584 0-87.914146-39.360562-87.914146-87.914146V87.914146c0-48.553584 39.360562-87.914146 87.914146-87.914146h705.31122zM512 805.213659c-33.657132 0-60.940488 27.283356-60.940488 60.940487s27.283356 60.940488 60.940488 60.940488 60.940488-27.283356 60.940488-60.940488-27.283356-60.940488-60.940488-60.940487zM790.704827 71.095571H233.295173c-37.689194 0-68.314287 30.247461-68.922693 67.792796l-0.00999 1.138888v562.562622A31.980769 31.980769 0 0 1 173.330732 701.315122h686.305779V140.028254c0-38.070821-30.861861-68.932683-68.932683-68.932683z" p-id="7614"></path></svg>