<?xml version="1.0" standalone="no"?><!DOCTYPE svg PUBLIC "-//W3C//DTD SVG 1.1//EN" "http://www.w3.org/Graphics/SVG/1.1/DTD/svg11.dtd"><svg t="1623307365424" class="icon" viewBox="0 0 1024 1024" version="1.1" xmlns="http://www.w3.org/2000/svg" p-id="2692" data-spm-anchor-id="a313x.7781069.0.i2" width="22" height="22" xmlns:xlink="http://www.w3.org/1999/xlink"><defs><style type="text/css"></style></defs><path d="M511.8 950.5c-248.1 0-449.9-201.8-449.9-449.9S263.7 50.7 511.8 50.7s449.9 201.8 449.9 449.9-201.9 449.9-449.9 449.9z m0-835c-212.4 0-385.1 172.8-385.1 385.1s172.8 385.1 385.1 385.1 385.1-172.8 385.1-385.1-172.8-385.1-385.1-385.1z" fill="#999999" p-id="2693"></path><path d="M504.9 207.5c-17.9 0-32.4-14.5-32.4-32.4v-57.9c0-17.9 14.5-32.4 32.4-32.4s32.4 14.5 32.4 32.4v57.9c0 17.9-14.5 32.4-32.4 32.4zM174.3 538.1h-57.9c-17.9 0-32.4-14.5-32.4-32.4s14.5-32.4 32.4-32.4h57.9c17.9 0 32.4 14.5 32.4 32.4s-14.5 32.4-32.4 32.4zM893.5 538.1h-57.9c-17.9 0-32.4-14.5-32.4-32.4s14.5-32.4 32.4-32.4h57.9c17.9 0 32.4 14.5 32.4 32.4s-14.5 32.4-32.4 32.4zM664.3 692.3c-8.3 0-16.6-3.2-22.9-9.5L482 523.5c-6.1-6.1-9.5-14.3-9.5-22.9V337c0-17.9 14.5-32.4 32.4-32.4s32.4 14.5 32.4 32.4v150.2L687.2 637c12.7 12.7 12.7 33.2 0 45.8-6.3 6.4-14.6 9.5-22.9 9.5z" fill="#999999" p-id="2694"></path></svg>